<?xml version="1.0" encoding="UTF-8" standalone="no"?>
<!-- Created with Inkscape (http://www.inkscape.org/) -->

<svg
   xmlns:dc="http://purl.org/dc/elements/1.1/"
   xmlns:cc="http://creativecommons.org/ns#"
   xmlns:rdf="http://www.w3.org/1999/02/22-rdf-syntax-ns#"
   xmlns:svg="http://www.w3.org/2000/svg"
   xmlns="http://www.w3.org/2000/svg"
   xmlns:sodipodi="http://sodipodi.sourceforge.net/DTD/sodipodi-0.dtd"
   xmlns:inkscape="http://www.inkscape.org/namespaces/inkscape"
   version="1.1"
   id="svg2"
   xml:space="preserve"
   width="266.66666"
   height="266.66666"
   viewBox="0 0 266.66666 266.66666"
   sodipodi:docname="OpenStack_Project_Octavia_mascot.svg"
   inkscape:version="0.92.3 (d244b95, 2018-08-02)"><metadata
     id="metadata8"><rdf:RDF><cc:Work
         rdf:about=""><dc:format>image/svg+xml</dc:format><dc:type
           rdf:resource="http://purl.org/dc/dcmitype/StillImage" /><dc:title></dc:title></cc:Work></rdf:RDF></metadata><defs
     id="defs6"><clipPath
       clipPathUnits="userSpaceOnUse"
       id="clipPath18"><path
         d="M 0,200 H 200 V 0 H 0 Z"
         id="path16"
         inkscape:connector-curvature="0" /></clipPath></defs><sodipodi:namedview
     pagecolor="#ffffff"
     bordercolor="#666666"
     borderopacity="1"
     objecttolerance="10"
     gridtolerance="10"
     guidetolerance="10"
     inkscape:pageopacity="0"
     inkscape:pageshadow="2"
     inkscape:window-width="2061"
     inkscape:window-height="1206"
     id="namedview4"
     showgrid="false"
     inkscape:zoom="0.88500003"
     inkscape:cx="133.33333"
     inkscape:cy="133.33333"
     inkscape:window-x="67"
     inkscape:window-y="52"
     inkscape:window-maximized="0"
     inkscape:current-layer="g10" /><g
     id="g10"
     inkscape:groupmode="layer"
     inkscape:label="OpenStack_Project_Octavia_mascot"
     transform="matrix(1.3333333,0,0,-1.3333333,0,266.66667)"><g
       id="g12"><g
         id="g14"
         clip-path="url(#clipPath18)"><g
           id="g20"
           transform="translate(75.4268,97.2871)"><path
             d="m 0,0 c 0.19,0.452 0.03,0.964 -0.392,1.215 l -25.71,14.838 c -3.494,2.018 -7.65,2.299 -11.395,0.753 -3.644,-1.496 -6.324,-4.518 -7.348,-8.273 l -0.131,-0.491 c -1.365,-5.15 0.573,-10.622 5.321,-13.915 2.078,-1.436 4.578,-2.108 7.098,-2.108 h 0.03 29.615 c 0.482,0 0.874,0.362 0.934,0.843 0.332,2.5 1.014,4.9 1.978,7.138 m 0.712,-21.544 c 0.513,0.291 0.673,0.964 0.322,1.436 -1.346,1.827 -2.289,3.965 -2.731,6.274 -0.09,0.482 -0.502,0.833 -0.984,0.833 h -29.495 c -3.824,0 -7.559,-1.525 -10.069,-4.407 -2.821,-3.242 -3.815,-7.529 -2.731,-11.615 l 0.131,-0.482 c 1.024,-3.765 3.704,-6.776 7.348,-8.282 3.745,-1.536 7.901,-1.265 11.395,0.753 z m 7.921,32.507 c 0.392,0.291 0.502,0.813 0.262,1.235 l -1.938,3.363 -12.94,22.407 c -2.018,3.494 -5.472,5.803 -9.477,6.345 -0.583,0.07 -1.155,0.11 -1.727,0.11 -3.313,0 -6.465,-1.285 -8.845,-3.644 l -0.341,-0.341 c -2.771,-2.791 -4.056,-6.636 -3.534,-10.571 0.542,-4.006 2.851,-7.459 6.345,-9.477 L -1.155,7.449 2.168,5.532 C 2.59,5.291 3.112,5.401 3.403,5.783 c 1.506,1.957 3.263,3.694 5.23,5.18 m 6.948,-3.504 c 0.702,1.466 0.14,1.988 -1.275,1.205 C 8.573,5.521 4.377,-0.101 3.172,-6.746 3.062,-7.368 3.614,-7.891 4.236,-7.8 c 2.711,0.432 5.271,1.626 7.359,3.484 0.171,0.15 0.271,0.361 0.301,0.591 0.412,4.027 2.018,7.761 3.685,11.184 m 0.963,-28.893 c 0.864,0 1.335,1.035 0.743,1.667 -2.199,2.37 -3.845,5.26 -4.738,8.453 -0.171,0.613 -0.863,0.893 -1.416,0.602 -2.108,-1.124 -4.397,-1.857 -6.776,-2.148 -0.613,-0.071 -1.014,-0.713 -0.814,-1.305 1.366,-4.217 5.341,-7.269 10.01,-7.269 z m 5.843,52.767 v 15.188 c 0,4.146 -1.797,8.172 -5.09,10.682 -2.258,1.717 -4.939,2.61 -7.67,2.61 -1.094,0 -2.188,-0.14 -3.262,-0.431 L 5.883,59.251 C 2.118,58.227 -0.904,55.547 -2.399,51.902 -3.946,48.158 -3.665,44.001 -1.646,40.508 L 13.251,14.697 c 0.241,-0.421 0.753,-0.582 1.205,-0.391 1.466,0.612 3.002,1.104 4.588,1.456 -0.05,0.13 -0.11,0.251 -0.17,0.331 -0.111,0.16 -0.412,0.492 -0.924,0.592 l -3.333,-0.482 0.532,3.674 v 1.567 c 0,1.486 0.291,2.972 0.954,4.306 1.214,2.43 3.252,3.986 5.561,4.659 0.412,0.12 0.723,0.491 0.723,0.924 M 46.21,-14.346 c 0.04,0.111 0.061,0.221 0.061,0.341 0,0.553 -0.453,1.004 -1.004,1.004 -4.257,0.07 -8.313,1.517 -11.616,4.076 -0.743,0.572 -1.777,-0.171 -1.435,-1.044 1.535,-3.885 3.925,-7.449 7.077,-10.421 0.291,-0.27 0.713,-0.361 1.074,-0.211 2.731,1.165 4.869,3.444 5.843,6.255 m 0.432,7.359 c 0,0.06 0,0.11 -0.01,0.161 -1.386,7.78 -6.847,14.155 -14.085,16.835 -0.553,0.211 -1.145,-0.12 -1.235,-0.693 h -0.01 C 30.81,6.375 31.071,3.313 32.315,0.603 c 2.46,-5.362 7.67,-8.584 13.292,-8.584 h 0.031 c 0.551,0 1.004,0.442 1.004,0.994 m 4.608,47.174 c 1.907,3.292 2.459,7.268 1.255,10.882 -0.683,2.028 -1.817,3.805 -3.293,5.201 -1.476,1.405 -3.283,2.429 -5.301,2.981 l -0.482,0.131 c -1.084,0.291 -2.178,0.431 -3.263,0.431 -2.74,0 -5.421,-0.903 -7.68,-2.62 -3.293,-2.509 -5.08,-6.526 -5.08,-10.661 V 30.851 c 0,-0.382 0.232,-0.713 0.583,-0.874 3.242,-1.486 5.421,-4.859 5.29,-8.594 -0.019,-0.612 -0.1,-1.204 -0.24,-1.777 l -0.583,-3.463 c -0.07,-0.452 0.201,-0.883 0.633,-1.014 0.772,-0.251 1.536,-0.532 2.279,-0.843 0.432,-0.181 0.913,-0.02 1.144,0.371 z m 28.3,-11.164 c 0.844,4.217 -0.422,8.423 -3.394,11.415 l -0.341,0.341 c -2.378,2.359 -5.531,3.644 -8.844,3.644 -0.643,0 -1.295,-0.05 -1.948,-0.15 -3.985,-0.592 -7.419,-3.132 -9.436,-6.616 L 40.869,12.167 c -0.23,-0.401 -0.12,-0.903 0.251,-1.184 1.998,-1.496 3.775,-3.253 5.28,-5.231 0.282,-0.361 0.784,-0.471 1.185,-0.24 l 25.449,14.687 c 3.304,1.907 5.773,5.09 6.516,8.824 m 15.209,-58.046 c 1.085,4.086 0.091,8.373 -2.731,11.615 -2.509,2.882 -6.244,4.407 -10.069,4.407 H 52.494 c -0.491,0 -0.893,-0.351 -0.983,-0.833 -0.442,-2.319 -1.396,-4.447 -2.741,-6.274 -0.351,-0.482 -0.191,-1.155 0.311,-1.446 l 26.805,-15.48 c 3.504,-2.018 7.66,-2.289 11.394,-0.753 3.644,1.506 6.324,4.517 7.349,8.282 z m -2.731,25.46 c 2.822,3.242 3.816,7.529 2.742,11.605 l -0.131,0.481 c -1.406,5.13 -5.863,8.865 -11.646,9.287 -2.489,0.17 -4.959,-0.502 -7.107,-1.757 L 75.855,16.042 50.146,1.194 C 49.744,0.964 49.583,0.462 49.773,0.04 c 0.985,-2.269 1.667,-4.688 1.998,-7.218 0.061,-0.452 0.432,-0.803 0.894,-0.803 h 29.294 c 3.825,0 7.56,1.526 10.069,4.418 m 7.59,12.899 c 1.416,-5.34 0.291,-10.932 -3.102,-15.339 -1.094,-1.426 -2.389,-2.661 -3.815,-3.685 -0.552,-0.391 -0.552,-1.205 0,-1.606 1.426,-1.014 2.721,-2.249 3.815,-3.685 3.393,-4.396 4.518,-9.988 3.102,-15.329 l -0.14,-0.522 c -1.446,-5.271 -5.191,-9.497 -10.281,-11.595 -2.228,-0.914 -4.548,-1.366 -6.866,-1.366 -3.093,0 -6.175,0.813 -8.955,2.41 l -28.933,16.705 c -0.301,0.17 -0.663,0.17 -0.964,0.01 -2.158,-1.135 -4.618,-1.787 -7.218,-1.787 h -2.037 c -0.553,0 -1.004,-0.451 -1.004,-1.004 v -7.278 c 0,-0.141 0.029,-0.272 0.08,-0.392 l 3.513,-8.473 c 0.211,-0.512 -0.04,-1.104 -0.552,-1.315 L 33.48,-46.06 c -0.511,-0.22 -1.094,0.031 -1.305,0.542 l -0.531,1.286 c -0.342,0.823 -1.517,0.823 -1.858,0 l -0.532,-1.286 c -0.211,-0.511 -0.803,-0.762 -1.316,-0.542 l -2.78,1.145 c -0.512,0.221 -0.753,0.803 -0.542,1.315 l 3.514,8.473 c 0.05,0.131 0.07,0.261 0.07,0.392 v 7.278 c 0,0.553 -0.442,1.004 -1.004,1.004 h -4.618 c -0.562,0 -1.004,-0.451 -1.004,-1.004 V -53.87 c 0,-0.552 0.442,-1.004 1.004,-1.004 h 1.857 c 0.552,0 1.004,-0.451 1.004,-1.004 v -3.012 c 0,-0.551 -0.452,-1.004 -1.004,-1.004 H 13.683 c -0.552,0 -1.004,0.453 -1.004,1.004 v 3.012 c 0,0.553 0.452,1.004 1.004,1.004 h 1.867 c 0.553,0 1.004,0.452 1.004,1.004 v 26.413 c 0,0.553 -0.451,1.004 -1.004,1.004 h -1.997 c -2.611,0 -5.07,0.652 -7.229,1.797 -0.311,0.161 -0.672,0.161 -0.973,-0.01 l -28.943,-16.715 c -2.781,-1.597 -5.853,-2.41 -8.955,-2.41 -2.309,0 -4.638,0.452 -6.857,1.366 -5.1,2.098 -8.845,6.324 -10.28,11.595 l -0.141,0.522 c -1.425,5.341 -0.291,10.933 3.093,15.329 1.104,1.436 2.389,2.671 3.815,3.685 0.552,0.401 0.552,1.215 0,1.606 -1.426,1.024 -2.711,2.259 -3.815,3.685 -3.384,4.407 -4.518,9.999 -3.093,15.339 l 0.141,0.513 c 1.435,5.28 5.18,9.506 10.28,11.605 1.687,0.692 3.424,1.114 5.18,1.275 0.673,0.07 1.084,0.773 0.804,1.395 -0.724,1.586 -1.215,3.293 -1.456,5.08 -0.733,5.491 1.074,10.872 4.949,14.768 l 0.362,0.371 c 3.905,3.865 9.286,5.672 14.767,4.939 1.787,-0.24 3.494,-0.733 5.08,-1.455 0.622,-0.282 1.325,0.13 1.395,0.803 0.161,1.757 0.583,3.503 1.275,5.18 2.098,5.1 6.325,8.844 11.595,10.29 l 0.522,0.13 c 5.341,1.426 10.933,0.291 15.34,-3.091 1.426,-1.105 2.661,-2.39 3.685,-3.815 0.391,-0.553 1.204,-0.553 1.606,0 1.014,1.425 2.249,2.71 3.685,3.815 4.396,3.382 9.988,4.517 15.329,3.091 l 0.522,-0.13 v -0.01 c 5.271,-1.436 9.497,-5.18 11.595,-10.28 0.693,-1.686 1.114,-3.423 1.285,-5.18 0.061,-0.673 0.774,-1.085 1.386,-0.803 1.596,0.722 3.293,1.215 5.08,1.455 5.491,0.733 10.872,-1.074 14.768,-4.939 l 0.371,-0.371 c 3.875,-3.906 5.672,-9.286 4.949,-14.768 -0.241,-1.787 -0.743,-3.494 -1.466,-5.08 -0.281,-0.622 0.131,-1.325 0.814,-1.395 1.747,-0.161 3.493,-0.583 5.179,-1.275 5.09,-2.099 8.835,-6.325 10.281,-11.605 z M 27.326,24.285 c 0.04,-0.813 -0.019,-2.46 -1.023,-3.464 -0.593,-0.602 -1.436,-0.863 -2.179,-0.964 -0.502,-0.06 -0.894,-0.482 -0.894,-1.003 0,-0.171 0.051,-0.342 0.131,-0.482 0.883,-1.617 1.034,-3.534 0.391,-5.271 -0.702,-1.887 -1.656,-3.794 -2.66,-5.812 -2.108,-4.217 -4.287,-8.574 -4.287,-13.031 0,-8.172 6.295,-14.899 14.296,-15.581 0.03,-0.01 0.06,-0.01 0.09,-0.01 0.552,0 1.004,0.452 1.004,1.004 0,0.221 -0.08,0.432 -0.201,0.602 -5.531,7.339 -7.9,16.605 -6.385,25.921 l 2.641,15.3 c 0,0.02 0.01,0.04 0.01,0.07 0.04,1.004 -0.322,1.968 -0.934,2.721 m -3.975,-0.512 c 1.004,1.014 2.68,1.064 3.483,1.024 -0.522,0.452 -1.144,0.783 -1.837,0.903 -1.395,0.251 -2.741,-0.17 -3.714,-1.194 -0.663,-0.683 -1.024,-1.607 -1.095,-2.55 v -0.091 c 0,-0.381 0.211,-0.712 0.522,-0.883 0.071,-0.03 0.141,-0.07 0.211,-0.11 0.141,-0.081 0.302,-0.121 0.472,-0.121 0.502,0 0.924,0.372 0.994,0.863 0.1,0.743 0.371,1.567 0.964,2.159"
             style="fill:#201915;fill-opacity:1;fill-rule:nonzero;stroke:none"
             id="path22"
             inkscape:connector-curvature="0" /></g><g
           id="g24"
           transform="translate(157.8984,74.8096)"><path
             d="m 0,0 c 1.937,0 3.514,-1.576 3.514,-3.514 0,-1.937 -1.577,-3.513 -3.514,-3.513 -1.937,0 -3.514,1.576 -3.514,3.513 C -3.514,-1.576 -1.937,0 0,0"
             style="fill:#296bb4;fill-opacity:1;fill-rule:nonzero;stroke:none"
             id="path26"
             inkscape:connector-curvature="0" /></g><g
           id="g28"
           transform="translate(157.6768,105.7803)"><path
             d="m 0,0 c 1.938,0 3.515,-1.576 3.515,-3.514 0,-1.937 -1.577,-3.513 -3.515,-3.513 -1.937,0 -3.514,1.576 -3.514,3.513 C -3.514,-1.576 -1.937,0 0,0"
             style="fill:#296bb4;fill-opacity:1;fill-rule:nonzero;stroke:none"
             id="path30"
             inkscape:connector-curvature="0" /></g><g
           id="g32"
           transform="translate(142.1768,132.394)"><path
             d="m 0,0 c 1.937,0 3.514,-1.576 3.514,-3.514 0,-1.937 -1.577,-3.513 -3.514,-3.513 -1.937,0 -3.514,1.576 -3.514,3.513 C -3.514,-1.576 -1.937,0 0,0"
             style="fill:#296bb4;fill-opacity:1;fill-rule:nonzero;stroke:none"
             id="path34"
             inkscape:connector-curvature="0" /></g><g
           id="g36"
           transform="translate(115.5332,147.7339)"><path
             d="m 0,0 c 1.937,0 3.514,-1.576 3.514,-3.514 0,-1.937 -1.577,-3.513 -3.514,-3.513 -1.928,0 -3.514,1.576 -3.514,3.513 C -3.514,-1.576 -1.928,0 0,0"
             style="fill:#296bb4;fill-opacity:1;fill-rule:nonzero;stroke:none"
             id="path38"
             inkscape:connector-curvature="0" /></g><g
           id="g40"
           transform="translate(84.8433,147.6636)"><path
             d="m 0,0 c 1.937,0 3.514,-1.586 3.514,-3.514 0,-1.937 -1.577,-3.513 -3.514,-3.513 -1.937,0 -3.514,1.576 -3.514,3.513 C -3.514,-1.586 -1.937,0 0,0"
             style="fill:#296bb4;fill-opacity:1;fill-rule:nonzero;stroke:none"
             id="path42"
             inkscape:connector-curvature="0" /></g><g
           id="g44"
           transform="translate(58.3599,131.9927)"><path
             d="m 0,0 c 1.937,0 3.514,-1.576 3.514,-3.514 0,-1.927 -1.577,-3.513 -3.514,-3.513 -1.937,0 -3.514,1.586 -3.514,3.513 C -3.514,-1.576 -1.937,0 0,0"
             style="fill:#296bb4;fill-opacity:1;fill-rule:nonzero;stroke:none"
             id="path46"
             inkscape:connector-curvature="0" /></g><g
           id="g48"
           transform="translate(42.749,105.8203)"><path
             d="m 0,0 c 1.937,0 3.514,-1.576 3.514,-3.514 0,-1.937 -1.577,-3.513 -3.514,-3.513 -1.937,0 -3.514,1.576 -3.514,3.513 C -3.514,-1.576 -1.937,0 0,0"
             style="fill:#296bb4;fill-opacity:1;fill-rule:nonzero;stroke:none"
             id="path50"
             inkscape:connector-curvature="0" /></g><g
           id="g52"
           transform="translate(42.7192,74.7598)"><path
             d="m 0,0 c 1.937,0 3.514,-1.576 3.514,-3.514 0,-1.937 -1.577,-3.513 -3.514,-3.513 -1.938,0 -3.514,1.576 -3.514,3.513 C -3.514,-1.576 -1.938,0 0,0"
             style="fill:#296bb4;fill-opacity:1;fill-rule:nonzero;stroke:none"
             id="path54"
             inkscape:connector-curvature="0" /></g><g
           id="g56"
           transform="translate(122.0586,90.4609)"><path
             d="m 0,0 c 0.01,-0.051 0.01,-0.101 0.01,-0.161 0,-0.552 -0.452,-0.994 -1.004,-0.994 h -0.03 c -5.622,0 -10.832,3.222 -13.292,8.584 -1.245,2.71 -1.506,5.772 -1.014,8.714 h 0.01 c 0.091,0.572 0.682,0.903 1.235,0.692 C -6.847,14.155 -1.386,7.78 0,0"
             style="fill:#aacf37;fill-opacity:1;fill-rule:nonzero;stroke:none"
             id="path58"
             inkscape:connector-curvature="0" /></g><g
           id="g60"
           transform="translate(91.0073,104.7461)"><path
             d="m 0,0 c -1.667,-3.423 -3.273,-7.157 -3.685,-11.184 -0.029,-0.23 -0.13,-0.441 -0.3,-0.591 -2.089,-1.858 -4.649,-3.052 -7.359,-3.484 -0.623,-0.091 -1.175,0.432 -1.064,1.054 1.204,6.645 5.401,12.268 11.133,15.41 C 0.141,1.988 0.703,1.466 0,0"
             style="fill:#aacf37;fill-opacity:1;fill-rule:nonzero;stroke:none"
             id="path62"
             inkscape:connector-curvature="0" /></g><g
           id="g64"
           transform="translate(95.6152,119.2427)"><path
             d="M 0,0 C 0.07,0.944 0.432,1.868 1.094,2.55 2.068,3.574 3.414,3.996 4.809,3.745 5.502,3.625 6.124,3.293 6.646,2.841 5.843,2.881 4.167,2.831 3.162,1.817 2.57,1.225 2.299,0.402 2.199,-0.341 2.128,-0.833 1.707,-1.205 1.205,-1.205 c -0.171,0 -0.331,0.04 -0.472,0.121 -0.07,0.04 -0.141,0.08 -0.211,0.11 C 0.211,-0.803 0,-0.472 0,-0.09 Z"
             style="fill:#276bb4;fill-opacity:1;fill-rule:nonzero;stroke:none"
             id="path66"
             inkscape:connector-curvature="0" /></g><g
           id="g68"
           transform="translate(103.6768,118.7813)"><path
             d="m 0,0 -2.641,-15.3 c -1.515,-9.316 0.854,-18.582 6.385,-25.921 0.121,-0.171 0.201,-0.382 0.201,-0.602 0,-0.552 -0.452,-1.004 -1.004,-1.004 -0.03,0 -0.06,0 -0.09,0.01 -8.001,0.682 -14.296,7.409 -14.296,15.581 0,4.457 2.179,8.814 4.287,13.03 1.004,2.018 1.958,3.926 2.66,5.813 0.643,1.737 0.492,3.654 -0.391,5.27 -0.08,0.141 -0.131,0.312 -0.131,0.482 0,0.522 0.392,0.944 0.894,1.004 0.743,0.101 1.586,0.362 2.179,0.964 1.004,1.004 1.063,2.651 1.023,3.464 C -0.312,2.038 0.05,1.074 0.01,0.07 0.01,0.04 0,0.02 0,0"
             style="fill:#296bb4;fill-opacity:1;fill-rule:nonzero;stroke:none"
             id="path70"
             inkscape:connector-curvature="0" /></g><g
           id="g72"
           transform="translate(109.0781,88.3623)"><path
             d="m 0,0 c 3.303,-2.56 7.358,-4.006 11.615,-4.076 0.552,0 1.004,-0.451 1.004,-1.004 0,-0.12 -0.02,-0.231 -0.06,-0.341 -0.974,-2.811 -3.113,-5.09 -5.843,-6.255 -0.362,-0.15 -0.783,-0.059 -1.074,0.211 C 2.489,-8.493 0.1,-4.929 -1.436,-1.044 -1.777,-0.171 -0.743,0.572 0,0"
             style="fill:#134a9a;fill-opacity:1;fill-rule:nonzero;stroke:none"
             id="path74"
             inkscape:connector-curvature="0" /></g><g
           id="g76"
           transform="translate(92.7139,77.5205)"><path
             d="m 0,0 c 0.592,-0.633 0.121,-1.667 -0.743,-1.667 h -2.991 c -4.669,0 -8.644,3.052 -10.01,7.269 -0.2,0.591 0.201,1.234 0.814,1.304 2.379,0.291 4.668,1.025 6.776,2.149 0.552,0.291 1.245,0.01 1.416,-0.603 C -3.845,5.26 -2.199,2.369 0,0"
             style="fill:#134a9a;fill-opacity:1;fill-rule:nonzero;stroke:none"
             id="path78"
             inkscape:connector-curvature="0" /></g><g
           id="g80"
           transform="translate(161.4121,71.2959)"><path
             d="m 0,0 c 0,1.937 -1.576,3.514 -3.514,3.514 -1.937,0 -3.513,-1.577 -3.513,-3.514 0,-1.937 1.576,-3.514 3.513,-3.514 C -1.576,-3.514 0,-1.937 0,0 m 4.959,0.994 c 0.593,-5.15 -3.443,-9.527 -8.473,-9.527 -4.437,0 -8.082,3.393 -8.493,7.72 -0.04,0.402 -0.302,0.752 -0.693,0.853 l -1.244,0.331 c -0.302,0.081 -0.613,-0.01 -0.854,-0.211 -1.576,-1.284 -3.815,-1.546 -5.672,-0.472 -2.711,1.567 -3.414,5.271 -1.195,7.751 1.275,1.415 3.333,1.978 5.15,1.406 1.607,-0.502 2.721,-1.657 3.243,-3.023 0.11,-0.291 0.341,-0.531 0.642,-0.612 l 1.365,-0.361 c 0.372,-0.101 0.764,0.05 0.994,0.361 1.858,2.39 4.94,3.775 8.293,3.183 C 1.666,7.75 4.537,4.679 4.959,0.994"
             style="fill:#201915;fill-opacity:1;fill-rule:nonzero;stroke:none"
             id="path82"
             inkscape:connector-curvature="0" /></g><g
           id="g84"
           transform="translate(161.1914,102.2666)"><path
             d="m 0,0 c 0,1.937 -1.576,3.514 -3.515,3.514 -1.937,0 -3.513,-1.577 -3.513,-3.514 0,-1.937 1.576,-3.514 3.513,-3.514 C -1.576,-3.514 0,-1.937 0,0 m -3.515,8.533 c 5.031,0 9.056,-4.377 8.474,-9.517 -0.422,-3.704 -3.323,-6.796 -7.008,-7.418 -3.392,-0.573 -6.485,0.873 -8.312,3.322 -0.241,0.321 -0.632,0.482 -1.014,0.382 l -1.094,-0.301 c -0.302,-0.081 -0.532,-0.321 -0.642,-0.612 -0.713,-1.888 -2.531,-3.243 -4.679,-3.243 -3.122,0 -5.582,2.851 -4.898,6.093 0.411,1.978 2.057,3.544 4.044,3.875 1.527,0.251 2.953,-0.19 4.027,-1.054 0.24,-0.201 0.561,-0.291 0.863,-0.21 l 1.084,0.301 c 0.382,0.1 0.643,0.432 0.683,0.823 0.482,4.246 4.095,7.559 8.472,7.559"
             style="fill:#201915;fill-opacity:1;fill-rule:nonzero;stroke:none"
             id="path86"
             inkscape:connector-curvature="0" /></g><g
           id="g88"
           transform="translate(145.6904,128.8804)"><path
             d="m 0,0 c 0,1.937 -1.576,3.514 -3.514,3.514 -1.937,0 -3.513,-1.577 -3.513,-3.514 0,-1.937 1.576,-3.514 3.513,-3.514 C -1.576,-3.514 0,-1.937 0,0 M -4.97,8.413 C 0.844,9.376 5.833,4.427 4.909,-1.375 4.357,-4.899 1.556,-7.75 -1.937,-8.393 -3.694,-8.704 -5.381,-8.473 -6.847,-7.851 -7.208,-7.69 -7.63,-7.75 -7.9,-8.031 l -0.784,-0.783 c -0.22,-0.221 -0.301,-0.542 -0.251,-0.853 0.322,-1.999 -0.572,-4.077 -2.429,-5.141 -2.7,-1.566 -6.265,-0.321 -7.299,2.821 -0.632,1.918 0.011,4.096 1.576,5.382 1.195,0.983 2.65,1.314 4.006,1.094 0.311,-0.051 0.633,0.03 0.853,0.251 l 0.733,0.742 c 0.281,0.282 0.342,0.703 0.181,1.075 -0.653,1.465 -0.904,3.152 -0.602,4.919 0.592,3.524 3.433,6.355 6.946,6.937"
             style="fill:#201915;fill-opacity:1;fill-rule:nonzero;stroke:none"
             id="path90"
             inkscape:connector-curvature="0" /></g><g
           id="g92"
           transform="translate(119.0469,144.2202)"><path
             d="m 0,0 c 0,1.937 -1.576,3.514 -3.514,3.514 -1.927,0 -3.513,-1.577 -3.513,-3.514 0,-1.937 1.586,-3.514 3.513,-3.514 C -1.576,-3.514 0,-1.937 0,0 m 4.839,1.787 c 1.054,-5.12 -2.53,-9.668 -7.309,-10.25 -0.391,-0.05 -0.722,-0.301 -0.823,-0.683 l -0.302,-1.124 c -0.08,-0.301 0.011,-0.623 0.211,-0.863 1.466,-1.787 1.597,-4.468 -0.07,-6.435 -1.284,-1.516 -3.423,-2.139 -5.311,-1.516 -3.152,1.034 -4.407,4.587 -2.84,7.298 0.602,1.044 1.515,1.787 2.559,2.179 0.292,0.12 0.532,0.341 0.612,0.652 l 0.282,1.064 c 0.1,0.382 -0.06,0.773 -0.381,1.004 -2.118,1.556 -3.514,4.056 -3.514,6.887 0,5.271 4.809,9.447 10.279,8.363 C 1.516,7.71 4.166,5.07 4.839,1.787"
             style="fill:#201915;fill-opacity:1;fill-rule:nonzero;stroke:none"
             id="path94"
             inkscape:connector-curvature="0" /></g><g
           id="g96"
           transform="translate(88.3569,144.1499)"><path
             d="m 0,0 c 0,1.928 -1.576,3.514 -3.514,3.514 -1.937,0 -3.513,-1.586 -3.513,-3.514 0,-1.937 1.576,-3.514 3.513,-3.514 C -1.576,-3.514 0,-1.937 0,0 M 4.899,1.466 C 5.471,-1.917 4.026,-5.02 1.576,-6.847 1.255,-7.078 1.094,-7.469 1.205,-7.851 l 0.291,-1.094 c 0.08,-0.311 0.321,-0.532 0.612,-0.642 1.888,-0.723 3.243,-2.53 3.243,-4.679 0,-3.122 -2.851,-5.581 -6.104,-4.909 -1.968,0.412 -3.534,2.069 -3.865,4.056 -0.251,1.526 0.191,2.952 1.054,4.016 0.201,0.251 0.291,0.562 0.211,0.873 l -0.291,1.074 c -0.11,0.382 -0.442,0.643 -0.834,0.683 -4.246,0.482 -7.569,4.086 -7.569,8.473 0,5.03 4.377,9.055 9.527,8.473 C 1.185,8.051 4.277,5.15 4.899,1.466"
             style="fill:#201915;fill-opacity:1;fill-rule:nonzero;stroke:none"
             id="path98"
             inkscape:connector-curvature="0" /></g><g
           id="g100"
           transform="translate(61.8735,128.479)"><path
             d="m 0,0 c 0,1.937 -1.576,3.514 -3.514,3.514 -1.937,0 -3.513,-1.577 -3.513,-3.514 0,-1.928 1.576,-3.514 3.513,-3.514 C -1.576,-3.514 0,-1.928 0,0 m 11.174,-7.67 c 1.566,-2.71 0.321,-6.265 -2.821,-7.298 -1.918,-0.633 -4.096,0.01 -5.381,1.566 -0.984,1.204 -1.315,2.66 -1.095,4.015 0.051,0.311 -0.03,0.633 -0.26,0.854 L 1.044,-7.961 C 0.753,-7.67 0.332,-7.62 -0.03,-7.78 c -1.476,-0.663 -3.172,-0.924 -4.949,-0.623 -3.524,0.582 -6.365,3.424 -6.947,6.947 C -12.9,4.357 -7.951,9.336 -2.148,8.433 1.366,7.88 4.217,5.1 4.869,1.606 5.19,-0.151 4.97,-1.827 4.347,-3.293 4.196,-3.654 4.257,-4.076 4.528,-4.347 L 5.18,-5 c 0.221,-0.221 0.543,-0.301 0.854,-0.25 1.997,0.331 4.075,-0.563 5.14,-2.42"
             style="fill:#201915;fill-opacity:1;fill-rule:nonzero;stroke:none"
             id="path102"
             inkscape:connector-curvature="0" /></g><g
           id="g104"
           transform="translate(46.2329,71.2461)"><path
             d="m 0,0 c 0,1.937 -1.576,3.514 -3.514,3.514 -1.938,0 -3.514,-1.577 -3.514,-3.514 0,-1.937 1.576,-3.514 3.514,-3.514 C -1.576,-3.514 0,-1.937 0,0 M 15.912,5.009 C 16.595,1.767 14.135,-1.095 11.003,-1.095 9.788,-1.095 8.684,-0.673 7.82,0.04 7.589,0.23 7.288,0.321 6.997,0.24 L 5.632,-0.131 C 5.25,-0.231 5,-0.562 4.949,-0.954 4.477,-5.211 0.863,-8.533 -3.514,-8.533 c -5.04,0 -9.065,4.377 -8.483,9.526 C -11.575,4.698 -8.674,7.79 -5,8.412 -1.606,8.984 1.496,7.539 3.313,5.09 3.554,4.769 3.945,4.617 4.327,4.718 L 5.682,5.09 C 5.993,5.17 6.214,5.4 6.324,5.702 7.147,7.86 9.396,9.316 11.937,8.854 13.894,8.503 15.5,6.957 15.912,5.009"
             style="fill:#201915;fill-opacity:1;fill-rule:nonzero;stroke:none"
             id="path106"
             inkscape:connector-curvature="0" /></g><g
           id="g108"
           transform="translate(46.2627,102.3066)"><path
             d="m 0,0 c 0,1.937 -1.576,3.514 -3.514,3.514 -1.937,0 -3.513,-1.577 -3.513,-3.514 0,-1.937 1.576,-3.514 3.513,-3.514 C -1.576,-3.514 0,-1.937 0,0 m 14.206,-0.231 c 1.515,-1.285 2.138,-3.423 1.515,-5.31 -1.033,-3.163 -4.588,-4.407 -7.298,-2.842 -1.044,0.593 -1.787,1.517 -2.178,2.55 -0.121,0.302 -0.342,0.532 -0.653,0.613 l -1.365,0.371 c -0.372,0.09 -0.753,-0.06 -0.994,-0.361 -1.566,-2.018 -4.006,-3.323 -6.747,-3.323 -5.27,0 -9.436,4.799 -8.362,10.26 C -11.224,5.03 -8.563,7.7 -5.25,8.363 -0.07,9.387 4.508,5.692 4.97,0.803 5.01,0.402 5.271,0.061 5.662,-0.04 l 1.245,-0.331 c 0.301,-0.081 0.622,0.01 0.864,0.21 1.787,1.456 4.467,1.597 6.435,-0.07"
             style="fill:#201915;fill-opacity:1;fill-rule:nonzero;stroke:none"
             id="path110"
             inkscape:connector-curvature="0" /></g><g
           id="g112"
           transform="translate(157.3857,84.2861)"><path
             d="m 0,0 h -12.443 c -0.073,-1.371 -0.212,-2.725 -0.404,-4.062 0.119,-0.027 0.241,-0.046 0.359,-0.084 1.606,-0.501 2.72,-1.656 3.242,-3.021 0.11,-0.292 0.342,-0.533 0.642,-0.612 l 1.366,-0.363 c 0.372,-0.1 0.763,0.051 0.994,0.363 1.857,2.388 4.939,3.774 8.293,3.181 3.643,-0.642 6.514,-3.714 6.936,-7.398 0.593,-5.15 -3.443,-9.527 -8.472,-9.527 -4.438,0 -8.082,3.393 -8.493,7.72 -0.041,0.402 -0.302,0.753 -0.694,0.853 l -1.244,0.331 c -0.302,0.081 -0.612,-0.01 -0.853,-0.211 -1.284,-1.046 -3.003,-1.399 -4.601,-0.919 -0.514,-1.339 -1.088,-2.646 -1.723,-3.919 l 11.022,-6.365 c 3.504,-2.018 7.66,-2.289 11.394,-0.753 3.644,1.506 6.325,4.517 7.349,8.282 l 0.13,0.482 c 1.085,4.086 0.091,8.373 -2.731,11.616 C 7.56,-1.525 3.825,0 0,0"
             style="fill:#269d49;fill-opacity:1;fill-rule:nonzero;stroke:none"
             id="path114"
             inkscape:connector-curvature="0" /></g><g
           id="g116"
           transform="translate(142.5479,103.3809)"><path
             d="M 0,0 C 1.526,0.251 2.952,-0.191 4.026,-1.054 4.267,-1.255 4.588,-1.345 4.89,-1.265 l 1.084,0.302 c 0.381,0.1 0.642,0.431 0.682,0.823 0.483,4.246 4.096,7.559 8.474,7.559 5.029,0 9.055,-4.377 8.473,-9.517 -0.422,-3.705 -3.324,-6.797 -7.008,-7.419 -3.393,-0.572 -6.486,0.873 -8.313,3.323 -0.24,0.321 -0.632,0.482 -1.013,0.382 L 6.175,-6.113 C 5.873,-6.194 5.643,-6.435 5.532,-6.726 4.944,-8.283 3.599,-9.465 1.941,-9.835 c 0.213,-1.393 0.356,-2.809 0.438,-4.239 h 12.459 c 3.825,0 7.559,1.525 10.069,4.417 2.822,3.242 3.816,7.529 2.741,11.605 L 27.518,2.43 C 26.112,7.56 21.655,11.294 15.872,11.716 13.383,11.887 10.913,11.214 8.765,9.959 L 8.734,9.949 -2.342,3.552 c 0.61,-1.21 1.164,-2.451 1.664,-3.72 C -0.457,-0.097 -0.231,-0.039 0,0"
             style="fill:#269d49;fill-opacity:1;fill-rule:nonzero;stroke:none"
             id="path118"
             inkscape:connector-curvature="0" /></g><g
           id="g120"
           transform="translate(128.6035,122.2749)"><path
             d="m 0,0 c 1.195,0.984 2.65,1.315 4.006,1.094 0.311,-0.05 0.633,0.03 0.853,0.251 L 5.592,2.088 C 5.873,2.369 5.934,2.791 5.772,3.162 5.12,4.628 4.869,6.314 5.171,8.081 c 0.592,3.524 3.433,6.355 6.946,6.938 5.814,0.963 10.803,-3.986 9.879,-9.789 -0.552,-3.523 -3.353,-6.375 -6.847,-7.017 -1.756,-0.311 -3.443,-0.081 -4.909,0.542 -0.361,0.161 -0.783,0.1 -1.053,-0.181 L 8.403,-2.209 C 8.183,-2.43 8.102,-2.751 8.152,-3.062 8.416,-4.706 7.847,-6.395 6.606,-7.538 7.491,-8.649 8.324,-9.803 9.103,-10.996 l 10.754,6.207 c 3.304,1.908 5.773,5.09 6.516,8.825 0.844,4.216 -0.422,8.422 -3.394,11.414 l -0.34,0.342 c -2.379,2.358 -5.532,3.644 -8.845,3.644 -0.643,0 -1.295,-0.051 -1.947,-0.151 C 7.861,18.693 4.428,16.153 2.41,12.669 L -3.76,1.985 C -2.62,1.228 -1.52,0.417 -0.456,-0.438 -0.312,-0.285 -0.164,-0.135 0,0"
             style="fill:#269d49;fill-opacity:1;fill-rule:nonzero;stroke:none"
             id="path122"
             inkscape:connector-curvature="0" /></g><g
           id="g124"
           transform="translate(107.4414,132.4341)"><path
             d="m 0,0 c 0.603,1.044 1.516,1.787 2.56,2.179 0.292,0.12 0.532,0.341 0.612,0.653 l 0.281,1.064 c 0.101,0.381 -0.059,0.772 -0.381,1.003 -2.118,1.556 -3.513,4.056 -3.513,6.887 0,5.271 4.808,9.447 10.279,8.363 3.283,-0.652 5.933,-3.293 6.606,-6.576 C 17.498,8.453 13.914,3.905 9.136,3.323 8.744,3.273 8.413,3.022 8.313,2.641 L 8.011,1.516 c -0.08,-0.301 0.01,-0.622 0.211,-0.863 1.026,-1.251 1.379,-2.936 0.939,-4.511 1.336,-0.533 2.64,-1.127 3.91,-1.78 L 19.235,5.04 c 1.908,3.293 2.459,7.268 1.255,10.882 -0.682,2.028 -1.817,3.805 -3.293,5.201 -1.475,1.405 -3.283,2.429 -5.301,2.981 l -0.482,0.13 c -1.084,0.292 -2.178,0.433 -3.263,0.433 -2.74,0 -5.421,-0.904 -7.679,-2.621 -3.293,-2.51 -5.08,-6.525 -5.08,-10.661 V -0.762 C -3.22,-0.851 -1.847,-0.995 -0.495,-1.206 -0.384,-0.793 -0.225,-0.388 0,0"
             style="fill:#269d49;fill-opacity:1;fill-rule:nonzero;stroke:none"
             id="path126"
             inkscape:connector-curvature="0" /></g><g
           id="g128"
           transform="translate(83.7388,129.0312)"><path
             d="M 0,0 C -0.251,1.526 0.191,2.951 1.054,4.016 1.255,4.267 1.345,4.578 1.265,4.889 L 0.974,5.963 c -0.11,0.381 -0.442,0.642 -0.833,0.683 -4.247,0.481 -7.57,4.085 -7.57,8.473 0,5.029 4.377,9.055 9.527,8.473 C 5.803,23.17 8.895,20.269 9.517,16.584 10.089,13.201 8.644,10.099 6.194,8.272 5.873,8.041 5.712,7.649 5.823,7.268 L 6.114,6.174 C 6.194,5.863 6.435,5.642 6.727,5.531 8.176,4.976 9.306,3.778 9.754,2.279 c 1.421,0.203 2.861,0.344 4.321,0.411 v 12.087 c 0,4.146 -1.797,8.172 -5.09,10.682 -2.258,1.717 -4.939,2.61 -7.67,2.61 -1.094,0 -2.188,-0.14 -3.262,-0.432 l -0.482,-0.13 c -3.765,-1.024 -6.787,-3.704 -8.282,-7.349 -1.547,-3.744 -1.266,-7.9 0.753,-11.394 l 6.167,-10.687 c 1.252,0.62 2.537,1.181 3.85,1.685 C 0.042,-0.159 0.014,-0.082 0,0"
             style="fill:#269d49;fill-opacity:1;fill-rule:nonzero;stroke:none"
             id="path130"
             inkscape:connector-curvature="0" /></g><g
           id="g132"
           transform="translate(64.8452,115.0767)"><path
             d="m 0,0 c -0.984,1.205 -1.315,2.661 -1.094,4.016 0.05,0.311 -0.031,0.632 -0.261,0.853 L -1.927,5.441 C -2.219,5.732 -2.64,5.782 -3.001,5.622 -4.478,4.959 -6.174,4.698 -7.951,5 c -3.524,0.582 -6.365,3.423 -6.947,6.947 -0.974,5.812 3.976,10.792 9.778,9.888 3.514,-0.552 6.365,-3.333 7.017,-6.827 C 2.219,13.251 1.998,11.575 1.375,10.109 1.225,9.748 1.285,9.326 1.556,9.055 L 2.208,8.403 C 2.43,8.182 2.751,8.102 3.062,8.152 4.53,8.395 6.037,7.972 7.158,6.997 8.307,7.905 9.5,8.757 10.735,9.552 L 4.598,20.179 c -2.018,3.493 -5.472,5.802 -9.477,6.344 -0.582,0.071 -1.155,0.111 -1.727,0.111 -3.312,0 -6.465,-1.285 -8.844,-3.644 l -0.342,-0.342 c -2.77,-2.791 -4.055,-6.636 -3.533,-10.571 0.542,-4.006 2.851,-7.459 6.345,-9.477 l 10.495,-6.061 c 0.786,1.183 1.628,2.325 2.519,3.426 C 0.023,-0.022 0.011,-0.013 0,0"
             style="fill:#269d49;fill-opacity:1;fill-rule:nonzero;stroke:none"
             id="path134"
             inkscape:connector-curvature="0" /></g><g
           id="g136"
           transform="translate(54.6855,93.9238)"><path
             d="M 0,0 C -1.044,0.593 -1.787,1.517 -2.178,2.55 -2.299,2.852 -2.52,3.082 -2.831,3.163 L -4.196,3.534 C -4.568,3.624 -4.949,3.474 -5.19,3.173 -6.756,1.155 -9.196,-0.15 -11.937,-0.15 c -5.27,0 -9.436,4.798 -8.362,10.26 0.653,3.303 3.313,5.973 6.626,6.636 5.18,1.024 9.758,-2.671 10.22,-7.56 0.04,-0.401 0.301,-0.743 0.692,-0.843 l 1.245,-0.332 c 0.301,-0.08 0.622,0.01 0.864,0.212 1.102,0.897 2.544,1.29 3.948,1.072 0.549,1.39 1.163,2.745 1.841,4.063 l -10.498,6.058 c -3.493,2.018 -7.65,2.299 -11.394,0.753 -3.644,-1.496 -6.325,-4.518 -7.349,-8.273 l -0.13,-0.491 c -1.366,-5.151 0.572,-10.622 5.32,-13.915 2.079,-1.435 4.578,-2.107 7.098,-2.107 h 0.03 12.024 c 0.083,1.45 0.229,2.885 0.446,4.295 C 0.452,-0.23 0.223,-0.128 0,0"
             style="fill:#269d49;fill-opacity:1;fill-rule:nonzero;stroke:none"
             id="path138"
             inkscape:connector-curvature="0" /></g><g
           id="g140"
           transform="translate(57.2354,70.1514)"><path
             d="m 0,0 c -1.214,0 -2.319,0.422 -3.182,1.135 -0.231,0.19 -0.532,0.28 -0.823,0.201 L -5.371,0.964 C -5.752,0.863 -6.003,0.532 -6.053,0.141 c -0.472,-4.257 -4.086,-7.579 -8.463,-7.579 -5.04,0 -9.066,4.376 -8.484,9.527 0.422,3.704 3.324,6.796 6.998,7.418 3.393,0.572 6.495,-0.873 8.312,-3.323 0.241,-0.321 0.633,-0.471 1.014,-0.372 l 1.356,0.372 c 0.311,0.081 0.531,0.311 0.642,0.613 0.497,1.304 1.519,2.342 2.807,2.864 -0.225,1.47 -0.378,2.962 -0.457,4.474 h -11.656 c -3.825,0 -7.56,-1.526 -10.07,-4.406 -2.821,-3.244 -3.814,-7.53 -2.73,-11.617 l 0.13,-0.481 c 1.024,-3.765 3.705,-6.777 7.349,-8.282 3.744,-1.537 7.901,-1.265 11.394,0.753 L 2.502,-3.883 C 1.851,-2.603 1.259,-1.288 0.729,0.06 0.491,0.024 0.249,0 0,0"
             style="fill:#269d49;fill-opacity:1;fill-rule:nonzero;stroke:none"
             id="path142"
             inkscape:connector-curvature="0" /></g><g
           id="g144"
           transform="translate(140.9424,70.9854)"><path
             d="M 0,0 C -2.711,1.565 -3.414,5.271 -1.195,7.75 -0.003,9.073 1.872,9.638 3.597,9.239 3.788,10.576 3.928,11.93 4,13.301 h -17.021 c -0.492,0 -0.894,-0.351 -0.984,-0.833 -0.441,-2.319 -1.395,-4.447 -2.741,-6.275 -0.351,-0.481 -0.191,-1.154 0.311,-1.445 l 15.784,-9.115 c 0.634,1.273 1.209,2.58 1.722,3.919 C 0.706,-0.339 0.346,-0.2 0,0"
             style="fill:#aacf37;fill-opacity:1;fill-rule:nonzero;stroke:none"
             id="path146"
             inkscape:connector-curvature="0" /></g><g
           id="g148"
           transform="translate(125.2002,97.3271)"><path
             d="M 0,0 C 0.984,-2.269 1.667,-4.687 1.998,-7.218 2.059,-7.67 2.43,-8.021 2.892,-8.021 h 16.835 c -0.082,1.431 -0.225,2.847 -0.438,4.24 -0.352,-0.079 -0.712,-0.134 -1.088,-0.134 -3.122,0 -5.582,2.852 -4.898,6.094 0.363,1.747 1.692,3.17 3.367,3.707 -0.5,1.269 -1.055,2.51 -1.664,3.72 L 0.372,1.154 C -0.029,0.924 -0.19,0.422 0,0"
             style="fill:#aacf37;fill-opacity:1;fill-rule:nonzero;stroke:none"
             id="path150"
             inkscape:connector-curvature="0" /></g><g
           id="g152"
           transform="translate(116.5469,108.27)"><path
             d="m 0,0 c 1.998,-1.496 3.774,-3.253 5.28,-5.23 0.282,-0.362 0.783,-0.472 1.185,-0.241 l 14.694,8.48 C 20.381,4.202 19.548,5.355 18.663,6.467 18.396,6.221 18.108,5.991 17.779,5.803 15.079,4.237 11.515,5.481 10.48,8.624 9.915,10.34 10.376,12.26 11.601,13.567 10.537,14.422 9.437,15.232 8.297,15.99 L -0.251,1.185 C -0.481,0.783 -0.371,0.281 0,0"
             style="fill:#aacf37;fill-opacity:1;fill-rule:nonzero;stroke:none"
             id="path154"
             inkscape:connector-curvature="0" /></g><g
           id="g156"
           transform="translate(103.416,127.2642)"><path
             d="M 0,0 C 3.242,-1.486 5.421,-4.859 5.29,-8.593 5.271,-9.206 5.189,-9.798 5.05,-10.371 l -0.583,-3.463 c -0.071,-0.452 0.201,-0.883 0.633,-1.014 0.773,-0.251 1.536,-0.532 2.279,-0.843 0.432,-0.181 0.913,-0.02 1.143,0.371 l 8.575,14.852 c -1.271,0.653 -2.575,1.247 -3.91,1.78 -0.19,-0.676 -0.509,-1.334 -1.01,-1.924 C 10.893,-2.128 8.754,-2.75 6.866,-2.128 4.165,-1.242 2.863,1.493 3.53,3.964 2.179,4.175 0.806,4.319 -0.583,4.408 V 0.874 C -0.583,0.492 -0.352,0.161 0,0"
             style="fill:#aacf37;fill-opacity:1;fill-rule:nonzero;stroke:none"
             id="path158"
             inkscape:connector-curvature="0" /></g><g
           id="g160"
           transform="translate(89.8828,111.5928)"><path
             d="M 0,0 C 1.466,0.613 3.002,1.104 4.588,1.456 4.538,1.586 4.478,1.707 4.417,1.787 4.307,1.948 4.006,2.279 3.494,2.379 L 0.161,1.898 0.693,5.572 v 1.566 c 0,1.486 0.291,2.972 0.953,4.307 1.215,2.43 3.253,3.986 5.562,4.658 0.412,0.121 0.723,0.492 0.723,0.923 v 3.103 c -1.46,-0.067 -2.9,-0.208 -4.321,-0.411 0.135,-0.452 0.215,-0.928 0.215,-1.426 0,-3.123 -2.851,-5.582 -6.104,-4.91 -1.887,0.395 -3.392,1.939 -3.806,3.818 -1.313,-0.504 -2.598,-1.065 -3.85,-1.684 L -1.205,0.392 C -0.964,-0.03 -0.452,-0.19 0,0"
             style="fill:#aacf37;fill-opacity:1;fill-rule:nonzero;stroke:none"
             id="path162"
             inkscape:connector-curvature="0" /></g><g
           id="g164"
           transform="translate(77.5952,102.8188)"><path
             d="M 0,0 C 0.421,-0.241 0.943,-0.131 1.234,0.251 2.74,2.208 4.497,3.945 6.465,5.431 6.856,5.722 6.967,6.244 6.726,6.666 L 4.789,10.029 -2.015,21.81 c -1.235,-0.795 -2.428,-1.647 -3.577,-2.555 0.405,-0.353 0.761,-0.772 1.044,-1.265 1.566,-2.711 0.321,-6.264 -2.821,-7.298 -1.902,-0.628 -4.058,0.002 -5.347,1.531 -0.891,-1.101 -1.733,-2.244 -2.519,-3.426 l 11.912,-6.88 z"
             style="fill:#aacf37;fill-opacity:1;fill-rule:nonzero;stroke:none"
             id="path166"
             inkscape:connector-curvature="0" /></g><g
           id="g168"
           transform="translate(73.4487,90.1494)"><path
             d="m 0,0 c 0.332,2.5 1.014,4.899 1.978,7.138 0.19,0.452 0.03,0.964 -0.392,1.215 l -15.212,8.779 c -0.678,-1.318 -1.292,-2.673 -1.841,-4.063 0.873,-0.135 1.733,-0.504 2.487,-1.143 1.516,-1.284 2.138,-3.423 1.516,-5.31 -0.95,-2.903 -4.021,-4.183 -6.615,-3.164 -0.217,-1.41 -0.363,-2.845 -0.446,-4.295 H -0.934 C -0.452,-0.843 -0.06,-0.481 0,0"
             style="fill:#aacf37;fill-opacity:1;fill-rule:nonzero;stroke:none"
             id="path170"
             inkscape:connector-curvature="0" /></g><g
           id="g172"
           transform="translate(76.4604,77.1787)"><path
             d="m 0,0 c -1.345,1.827 -2.289,3.966 -2.73,6.274 -0.091,0.483 -0.502,0.833 -0.984,0.833 h -17.839 c 0.079,-1.511 0.232,-3.003 0.457,-4.473 0.844,0.344 1.799,0.47 2.805,0.288 1.958,-0.352 3.564,-1.898 3.975,-3.845 0.629,-2.986 -1.408,-5.642 -4.18,-6.045 0.53,-1.347 1.121,-2.662 1.773,-3.942 l 16.402,9.474 C 0.191,-1.145 0.352,-0.472 0,0"
             style="fill:#aacf37;fill-opacity:1;fill-rule:nonzero;stroke:none"
             id="path174"
             inkscape:connector-curvature="0" /></g></g></g></g></svg>